PathFileType	4	(X/Y/Z)	C:/Users/beibeiliu/ov580/test_trc\sequence.26_training_dense_left.trc
DataRate	CameraRate	NumFrames	NumMarkers	Units	OrigDataRate	OrigDataStartFrame	OrigNumFrames
120	120	21	19	mm	120	1	400
Frame#	Time	ThumbCMC			ThumbMCP			ThumbIP			ThumbTip			IndexMCP			IndexPIP			IndexTip			MiddleMCP			MiddlePIP			MiddleTip			RingMCP			RingPIP			RingTip			PinkyMCP			PinkyPIP			PinkyTip			BackHand1			BackHand2			BackHand3	
		X0	Y0	Z0	X1	Y1	Z1	X2	Y2	Z2	X3	Y3	Z3	X4	Y4	Z4	X5	Y5	Z5	X6	Y6	Z6	X7	Y7	Z7	X8	Y8	Z8	X9	Y9	Z9	X10	Y10	Z10	X11	Y11	Z11	X12	Y12	Z12	X13	Y13	Z13	X14	Y14	Z14	X15	Y15	Z15	X16	Y16	Z16	X17	Y17	Z17	X18	Y18	Z18	
0	0	-165.097	19.9385	35.3026	-152.316	22.814	13.3563	-140.238	32.3739	-5.31309	-131.986	39.8535	-25.2163	-174.22	22.0106	-33.4789	-169.749	-5.71744	-36.9731	-169.779	-9.4503	-3.19023	-189.866	12.513	-35.2928	-185.038	-16.9665	-30.4029	-184.006	-13.1585	2.18054	-205.634	9.84811	-36.2264	-197.937	-13.5229	-33.865	-193.442	-14.997	-5.27188	-234.405	22.1106	-23.7509	-237.788	21.3668	-38.404	-240.852	23.9677	-59.7638	-213.487	36.7848	8.15336	-214.905	32.6153	39.8189	-189.292	39.7448	24.737	
1	0.00833333	-167.415	20.937	33.0946	-152.262	25.659	13.0816	-146.168	33.0908	-6.16898	-134.002	40.4911	-25.3975	-175.997	21.4821	-34.2485	-172.423	-8.1328	-33.8186	-172.571	-7.1905	-2.26809	-189.702	10.785	-36.1764	-184.958	-15.0811	-31.3006	-184.998	-10.0546	3.27083	-211.254	10.1519	-35.0893	-197.529	-12.8601	-32.4931	-193.711	-11.6222	-0.381832	-232.012	21.9384	-19.8692	-240.341	22.2333	-42.7123	-244.607	25.2579	-57.2024	-216.926	34.5463	11.7345	-214.784	33.985	37.7128	-189.384	39.5888	23.0614	
2	0.0166667	-167.691	20.1747	34.7049	-153.972	24.3633	15.2923	-142.84	35.5762	-8.39083	-136.163	38.897	-21.6978	-171.448	19.2667	-35.8763	-172.567	-5.73127	-34.5231	-167.809	-8.29336	-4.56608	-193.045	13.5028	-34.5229	-185.021	-14.7546	-29.1227	-182.284	-8.92533	2.47341	-207.139	13.0455	-33.2528	-196.226	-14.7485	-28.4082	-194.831	-11.8983	-0.873912	-234.134	22.5437	-20.4854	-239.851	21.7968	-40.0649	-242.469	24.318	-57.3622	-218.272	34.8927	11.6862	-214.426	32.0773	37.5315	-191.696	38.5459	25.9307	
3	0.025	-164.907	23.7947	31.6753	-154.426	26.3245	13.2766	-144.156	34.7315	-6.18029	-134.504	38.7236	-19.5861	-174.079	20.3566	-34.6029	-167.769	-7.01838	-31.9141	-172.419	-8.57589	-5.65196	-190.714	15.7485	-33.1463	-184.329	-14.7897	-26.4638	-184.773	-6.52266	3.83698	-205.722	11.6915	-34.6089	-196.704	-14.1873	-28.8833	-191.82	-13.2738	-4.47126	-228.966	22.9955	-19.3554	-235.038	25.1621	-39.6031	-242.311	28.2551	-55.9842	-216.375	34.5868	9.38572	-218.375	31.7591	36.8411	-190.431	40.0345	23.9257	
4	0.0333333	-168.839	21.0304	34.8142	-152.91	28.0147	12.5243	-141.032	35.0313	-4.0769	-131.573	40.7096	-20.2874	-170.797	24.3395	-32.6431	-168.104	-3.67147	-35.0848	-166.618	-8.57911	-4.18831	-186.557	12.4954	-36.4241	-180.158	-13.6548	-23.8614	-181.411	-6.59565	3.49723	-209.258	10.103	-33.3121	-193.568	-14.205	-27.6971	-193.576	-10.3587	-0.321464	-233.781	21.6659	-21.5439	-232.462	24.8153	-38.6156	-241.234	29.0214	-56.1408	-217.44	35.5714	10.3658	-213.074	33.1944	36.1372	-191.248	39.0349	23.9992	
5	0.0416667	-168.197	23.3667	31.6196	-153.352	27.8096	13.866	-142.97	36.8975	-6.66769	-130.302	41.3811	-20.4798	-168.766	24.972	-31.4086	-169.486	-5.99183	-31.3878	-166.364	-8.36012	-3.94973	-189.126	11.266	-34.6691	-179.666	-13.7444	-25.6944	-183.857	-4.99113	4.56122	-208.193	9.17417	-33.5971	-194.89	-15.7634	-26.5813	-193.456	-12.6633	-1.50405	-230.562	22.5783	-21.8715	-231.001	23.7043	-37.4104	-239.123	26.1879	-56.594	-213.822	34.7946	13.3409	-215.281	31.2081	37.2128	-187.89	39.258	25.4586	
6	0.05	-165.576	24.0778	32.7411	-150.367	28.4005	13.809	-142.997	32.6184	-3.45157	-132.355	39.8539	-19.3165	-171.465	20.2042	-34.1356	-164.918	-3.32911	-33.6512	-168.006	-8.74285	-4.12731	-188.81	10.0022	-34.6504	-178.788	-13.3621	-27.1264	-181.092	-3.95599	6.53658	-203.432	11.9153	-32.0608	-193.858	-14.2783	-28.4151	-189.657	-9.41953	1.5805	-231.547	20.7189	-22.7346	-232.844	22.6341	-43.2565	-237.395	26.1225	-58.7551	-211.971	32.6532	13.0765	-216.639	30.4881	38.4521	-191.189	39.7901	26.7579	
7	0.0583333	-165.395	22.0332	36.8606	-150.685	25.8114	15.7807	-139.555	36.1807	-5.77373	-128.713	40.2095	-18.4447	-169.855	21.1621	-34.0081	-163.7	-6.67078	-29.9565	-168.248	-9.50881	-3.59024	-186.363	9.90566	-34.3307	-178.975	-14.2523	-25.7261	-177.364	-1.37404	6.92946	-202.187	10.3664	-33.2692	-194.953	-16.3045	-27.4029	-191.149	-12.7291	-0.841611	-230.79	21.1801	-25.5659	-230.019	21.2559	-40.4658	-235.097	24.3562	-62.743	-217.012	31.552	12.3009	-216.103	30.4969	36.2649	-188.147	41.0891	26.0315	
8	0.0666667	-165.328	21.8702	33.5225	-151.525	26.2749	12.5961	-143.488	33.3262	-5.72003	-131.186	41.1875	-23.0145	-169.244	22.4366	-32.5905	-164.213	-8.12582	-29.874	-163.629	-6.17496	0.619597	-185.946	12.5692	-33.3505	-180.234	-16.6525	-22.2205	-179.324	-4.17033	6.14442	-202.782	7.74756	-34.7218	-193.506	-16.7641	-27.7894	-188.34	-9.56499	0.649889	-229.674	19.0455	-21.8328	-228.614	20.0274	-39.9985	-234.147	22.8785	-61.09	-213.73	31.4259	10.407	-216.363	28.5153	38.5436	-189.203	37.7589	25.9428	
9	0.075	-167.251	20.3762	35.1596	-147.441	26.4138	14.2324	-138.438	33.2747	-2.77941	-133.006	37.153	-20.6976	-167.169	20.7199	-32.6589	-165.81	-6.20569	-33.3373	-166.187	-9.92261	-1.58199	-183.068	10.497	-34.297	-175.579	-16.0789	-24.1534	-178.134	-5.75044	5.54293	-198.601	7.88449	-35.4064	-193.837	-17.5679	-28.9863	-189.429	-11.5885	-0.086903	-224.386	19.6166	-21.6682	-228.824	18.9414	-43.0309	-230.73	21.8097	-60.6701	-216.116	31.171	10.636	-215.718	30.334	34.6151	-188.033	37.972	26.899	
10	0.0833333	-165.167	22.1188	34.0099	-149.575	25.68	14.7918	-140.065	33.195	-4.96309	-129.923	39.3824	-21.8826	-168.905	18.7146	-32.6911	-162.482	-6.69355	-31.5397	-166.841	-8.68268	0.0634773	-183.244	8.09222	-34.7785	-175.949	-15.8061	-24.5559	-181.302	-6.60533	6.04737	-204.388	5.67301	-33.7465	-192.436	-17.8181	-28.2351	-188.189	-11.105	1.72988	-224.054	18.6259	-22.3848	-227.826	18.9144	-42.5844	-230.178	20.7164	-60.2419	-215.691	30.4872	10.8335	-214.607	28.934	33.4076	-190.04	38.2423	25.6428	
11	0.0916667	-167.94	18.4727	35.4771	-146.901	24.8822	16.4213	-138.369	32.9406	-3.3131	-133.153	37.527	-20.6618	-166.811	18.6803	-32.8036	-161.829	-8.1272	-29.5068	-165.277	-10.5812	-2.50629	-183.638	10.5215	-33.2686	-177.223	-17.6419	-23.0198	-179.326	-3.90068	8.19655	-203.157	7.34642	-32.4895	-189.272	-15.8327	-28.7702	-188.698	-14.7802	-0.154072	-223.102	19.8348	-27.4354	-225.113	18.2548	-40.6953	-232.296	20.3974	-61.695	-215.45	31.8651	9.26687	-217.187	28.556	35.3613	-186.529	36.7849	24.1337	
12	0.1	-168.211	21.5003	32.3649	-152.292	23.5346	13.8504	-137.926	32.1089	-3.94549	-129.338	38.5202	-19.6608	-165.378	18.5701	-33.2846	-159.348	-7.11504	-29.898	-163.215	-10.2703	-2.54917	-180.88	9.96957	-33.831	-176.231	-16.9458	-21.6368	-179.653	-6.88495	6.79875	-203.629	6.59718	-34.0158	-186.758	-16.1191	-26.5143	-187.894	-12.6223	0.549684	-225.964	17.851	-23.1491	-226.344	17.9309	-40.0669	-230.116	22.3724	-62.6069	-210.351	31.4113	8.26864	-214.251	28.1781	37.8483	-188.486	35.9223	26.3835	
13	0.108333	-165.885	19.2395	35.47	-147.84	25.7722	13.8993	-138.339	34.3607	-5.28658	-129.605	39.0782	-21.6514	-169.642	21.3479	-31.3647	-162.074	-5.75675	-32.6808	-164.742	-7.76891	0.464686	-182.098	8.93882	-35.323	-174.508	-15.8475	-22.0725	-177.298	-5.809	6.01166	-200.192	6.78224	-35.0698	-189.82	-14.9695	-29.3213	-186.8	-12.6842	-1.18818	-223.234	21.0542	-27.1692	-227.207	18.9306	-45.6112	-228.146	23.1238	-62.4447	-211.222	31.1587	8.31089	-214.198	30.4399	35.7863	-189.001	38.1132	28.8583	
14	0.116667	-164.908	22.1089	35.2218	-149.305	25.0754	16.2755	-138.602	33.5848	-3.81821	-132.452	39.2333	-21.1694	-169.857	20.0965	-33.6636	-164.154	-5.61008	-31.8151	-165.256	-6.64943	-1.14165	-182.459	12.6	-33.4216	-174.116	-14.2436	-23.4923	-179.754	0.0669333	7.78693	-200.603	8.05768	-34.4644	-189.36	-15.6063	-27.6697	-186.379	-11.6859	-2.21686	-227.838	19.796	-27.0001	-228.309	19.7276	-40.8191	-231.521	23.8927	-64.236	-216.3	31.3679	10.7506	-213.405	28.5768	34.7437	-190.549	38.4774	25.6018	
15	0.125	-165.396	22.3957	33.5673	-150.87	27.0501	12.1921	-139.906	37.2621	-8.64374	-131.698	38.5615	-22.0164	-168.623	22.3487	-33.341	-161.031	-4.73999	-31.7893	-167.864	-5.61136	0.655454	-186.601	12.9128	-34.0434	-173.843	-14.439	-21.1895	-178.381	-2.22041	6.39106	-203.379	9.18148	-34.1136	-189.711	-13.5215	-28.918	-189.001	-11.1749	-1.08284	-229.033	19.9819	-25.7588	-227.13	21.1116	-42.4973	-229.226	25.2584	-63.1916	-213.769	31.9718	7.70255	-214.292	29.6271	35.1913	-188.964	41.7129	23.0249	
16	0.133333	-164.995	22.8814	34.1283	-149.407	28.9234	9.11339	-141.624	34.8073	-8.10823	-133.03	41.3745	-27.5052	-170.653	23.9859	-33.0961	-166.195	-5.849	-30.592	-167.297	-6.52573	-2.21548	-189.165	13.4833	-33.2087	-179.778	-14.8339	-23.3303	-181.138	-2.1943	5.66473	-200.651	9.34221	-34.3706	-191.935	-15.7401	-26.9207	-190.667	-8.15944	2.40708	-227.896	21.1269	-27.1567	-228.519	21.7135	-42.0902	-230.583	24.8437	-61.106	-215.048	32.7823	11.4512	-213.579	32.9564	33.4747	-190.621	41.9375	21.5531	
17	0.141667	-163.729	23.6194	31.5087	-151.148	24.1166	11.4238	-141.653	31.2032	-8.72836	-131.951	36.8603	-27.5647	-168.663	23.9153	-33.7759	-168.486	-6.71524	-31.5288	-168.659	-6.83276	-3.67168	-187.963	10.1059	-36.1016	-179.945	-13.8811	-24.5986	-183.565	1.67159	6.58653	-205.373	8.907	-35.7239	-195.674	-14.8009	-29.3659	-189.014	-6.47306	-0.944527	-227.219	23.6205	-24.2974	-231.78	23.777	-44.2687	-233.133	26.7259	-58.6038	-212.933	35.9907	8.51013	-215.265	33.7052	32.5415	-191.353	41.3243	22.349	
18	0.15	-162.845	22.4421	29.178	-152.312	21.3414	10.3054	-139.811	29.1577	-13.6802	-135.915	31.8648	-29.8842	-171.462	21.356	-34.0663	-169.909	-8.43991	-34.2714	-173.608	-8.10744	-4.04032	-189.766	12.7087	-35.9897	-186.745	-16.6883	-21.8417	-186.191	-4.34338	4.23327	-207.776	11.7879	-34.7275	-200.287	-15.9847	-27.5796	-194.17	-6.99547	1.27502	-229.311	25.4473	-23.868	-231.262	27.1323	-44.2663	-233.801	30.8531	-58.2495	-210.892	36.7286	10.0179	-213.829	36.4501	35.6221	-189.861	38.831	22.0971	
19	0.158333	-165.035	17.6784	28.6771	-148.346	17.5759	8.78628	-140.308	22.9021	-11.8526	-131.171	25.5525	-29.9093	-175.556	15.6175	-38.5841	-175.393	-9.99759	-36.5141	-176.188	-9.37922	-4.87279	-192.564	8.78195	-37.7433	-186.993	-16.8348	-25.1223	-187.596	-5.14104	3.5862	-211.416	9.3985	-36.5469	-203.828	-13.0361	-29.8938	-196.637	-7.78771	-0.142481	-231.352	28.8767	-21.1434	-235.141	29.98	-39.2166	-239.539	33.0179	-57.6055	-209.885	40.6793	7.82219	-209.464	35.1229	37.0139	-181.862	38.8208	22.8449	
20	0.166667	-166.545	13.0406	30.2722	-148.897	12.7239	5.67922	-138.844	16.776	-14.8467	-129.789	17.1022	-32.4941	-175.496	15.6846	-35.8466	-182.241	-14.2832	-33.2211	-179.718	-10.0089	-3.02652	-196.518	10.6282	-35.4464	-192.635	-17.9549	-26.5527	-189.201	-5.92385	4.30409	-212.686	13.4702	-34.0238	-209.17	-15.1344	-25.9919	-199.658	-8.79808	-1.9659	-229.732	32.7943	-21.7725	-234.528	33.8105	-39.4443	-236.272	38.525	-57.5779	-207.413	39.5696	8.42707	-206.108	38.1059	33.0371	-182.82	38.5899	18.6033	
